<mxfile host="app.diagrams.net" modified="2020-10-29T19:55:30.467Z" agent="5.0 (Windows NT 10.0; Win64; x64) AppleWebKit/537.36 (KHTML, like Gecko) Chrome/86.0.4240.111 Safari/537.36" etag="Z42M_OPf416iewBwLCuY" version="13.8.5" type="github">
  <diagram id="2XYw5rfrzcdDfsoRY1aY" name="Page-1">
    <mxGraphModel dx="4260" dy="1960" grid="1" gridSize="10" guides="1" tooltips="1" connect="1" arrows="1" fold="1" page="1" pageScale="1" pageWidth="827" pageHeight="1169" math="0" shadow="0">
      <root>
        <mxCell id="0" />
        <mxCell id="1" parent="0" />
        <mxCell id="bIGdx2mvvDFSyfbHBPX8-4" style="edgeStyle=orthogonalEdgeStyle;rounded=0;orthogonalLoop=1;jettySize=auto;html=1;exitX=0.5;exitY=1;exitDx=0;exitDy=0;exitPerimeter=0;entryX=0.5;entryY=0;entryDx=0;entryDy=0;endArrow=open;endFill=0;" edge="1" parent="1" source="bIGdx2mvvDFSyfbHBPX8-2" target="bIGdx2mvvDFSyfbHBPX8-3">
          <mxGeometry relative="1" as="geometry" />
        </mxCell>
        <mxCell id="bIGdx2mvvDFSyfbHBPX8-2" value="Вход" style="strokeWidth=2;html=1;shape=mxgraph.flowchart.terminator;whiteSpace=wrap;" vertex="1" parent="1">
          <mxGeometry x="364" width="100" height="60" as="geometry" />
        </mxCell>
        <mxCell id="bIGdx2mvvDFSyfbHBPX8-6" style="edgeStyle=orthogonalEdgeStyle;rounded=0;orthogonalLoop=1;jettySize=auto;html=1;endArrow=open;endFill=0;" edge="1" parent="1" source="bIGdx2mvvDFSyfbHBPX8-3" target="bIGdx2mvvDFSyfbHBPX8-5">
          <mxGeometry relative="1" as="geometry" />
        </mxCell>
        <mxCell id="bIGdx2mvvDFSyfbHBPX8-3" value="Ввод x, y, z" style="shape=parallelogram;perimeter=parallelogramPerimeter;whiteSpace=wrap;html=1;fixedSize=1;" vertex="1" parent="1">
          <mxGeometry x="354" y="100" width="120" height="50" as="geometry" />
        </mxCell>
        <mxCell id="bIGdx2mvvDFSyfbHBPX8-9" style="edgeStyle=orthogonalEdgeStyle;rounded=0;orthogonalLoop=1;jettySize=auto;html=1;endArrow=open;endFill=0;" edge="1" parent="1" source="bIGdx2mvvDFSyfbHBPX8-5" target="bIGdx2mvvDFSyfbHBPX8-7">
          <mxGeometry relative="1" as="geometry" />
        </mxCell>
        <mxCell id="bIGdx2mvvDFSyfbHBPX8-16" style="edgeStyle=orthogonalEdgeStyle;rounded=0;orthogonalLoop=1;jettySize=auto;html=1;exitX=0.5;exitY=1;exitDx=0;exitDy=0;entryX=0.5;entryY=0;entryDx=0;entryDy=0;endArrow=open;endFill=0;" edge="1" parent="1" source="bIGdx2mvvDFSyfbHBPX8-5" target="bIGdx2mvvDFSyfbHBPX8-15">
          <mxGeometry relative="1" as="geometry" />
        </mxCell>
        <mxCell id="bIGdx2mvvDFSyfbHBPX8-20" style="edgeStyle=orthogonalEdgeStyle;rounded=0;orthogonalLoop=1;jettySize=auto;html=1;endArrow=open;endFill=0;" edge="1" parent="1" source="bIGdx2mvvDFSyfbHBPX8-5" target="bIGdx2mvvDFSyfbHBPX8-19">
          <mxGeometry relative="1" as="geometry" />
        </mxCell>
        <mxCell id="bIGdx2mvvDFSyfbHBPX8-5" value="case" style="triangle;whiteSpace=wrap;html=1;direction=north;" vertex="1" parent="1">
          <mxGeometry x="368" y="180" width="91.25" height="70" as="geometry" />
        </mxCell>
        <mxCell id="bIGdx2mvvDFSyfbHBPX8-28" style="edgeStyle=orthogonalEdgeStyle;rounded=0;orthogonalLoop=1;jettySize=auto;html=1;entryX=0;entryY=0.5;entryDx=0;entryDy=0;endArrow=open;endFill=0;" edge="1" parent="1" source="bIGdx2mvvDFSyfbHBPX8-7" target="bIGdx2mvvDFSyfbHBPX8-29">
          <mxGeometry relative="1" as="geometry">
            <mxPoint x="376" y="380" as="targetPoint" />
            <Array as="points">
              <mxPoint x="280" y="400" />
            </Array>
          </mxGeometry>
        </mxCell>
        <mxCell id="bIGdx2mvvDFSyfbHBPX8-7" value="f=sinh(x)" style="rounded=0;whiteSpace=wrap;html=1;" vertex="1" parent="1">
          <mxGeometry x="234" y="290" width="76" height="40" as="geometry" />
        </mxCell>
        <mxCell id="bIGdx2mvvDFSyfbHBPX8-27" style="edgeStyle=orthogonalEdgeStyle;rounded=0;orthogonalLoop=1;jettySize=auto;html=1;entryX=1;entryY=0.5;entryDx=0;entryDy=0;endArrow=open;endFill=0;" edge="1" parent="1" source="bIGdx2mvvDFSyfbHBPX8-15" target="bIGdx2mvvDFSyfbHBPX8-29">
          <mxGeometry relative="1" as="geometry">
            <mxPoint x="452" y="380" as="targetPoint" />
            <Array as="points">
              <mxPoint x="558" y="400" />
            </Array>
          </mxGeometry>
        </mxCell>
        <mxCell id="bIGdx2mvvDFSyfbHBPX8-15" value="exp(x)" style="rounded=0;whiteSpace=wrap;html=1;" vertex="1" parent="1">
          <mxGeometry x="520" y="290" width="76" height="40" as="geometry" />
        </mxCell>
        <mxCell id="bIGdx2mvvDFSyfbHBPX8-22" style="edgeStyle=orthogonalEdgeStyle;rounded=0;orthogonalLoop=1;jettySize=auto;html=1;exitX=0.5;exitY=1;exitDx=0;exitDy=0;entryX=0.5;entryY=0;entryDx=0;entryDy=0;endArrow=open;endFill=0;" edge="1" parent="1" source="bIGdx2mvvDFSyfbHBPX8-19">
          <mxGeometry relative="1" as="geometry">
            <mxPoint x="414" y="360" as="targetPoint" />
          </mxGeometry>
        </mxCell>
        <mxCell id="bIGdx2mvvDFSyfbHBPX8-19" value="pow(x,2)" style="rounded=0;whiteSpace=wrap;html=1;" vertex="1" parent="1">
          <mxGeometry x="376" y="290" width="76" height="40" as="geometry" />
        </mxCell>
        <mxCell id="bIGdx2mvvDFSyfbHBPX8-31" style="edgeStyle=orthogonalEdgeStyle;rounded=0;orthogonalLoop=1;jettySize=auto;html=1;endArrow=open;endFill=0;entryX=0.5;entryY=0;entryDx=0;entryDy=0;" edge="1" parent="1" source="bIGdx2mvvDFSyfbHBPX8-29" target="bIGdx2mvvDFSyfbHBPX8-33">
          <mxGeometry relative="1" as="geometry">
            <mxPoint x="414" y="520" as="targetPoint" />
            <Array as="points">
              <mxPoint x="414" y="490" />
            </Array>
          </mxGeometry>
        </mxCell>
        <mxCell id="bIGdx2mvvDFSyfbHBPX8-38" style="edgeStyle=orthogonalEdgeStyle;rounded=0;orthogonalLoop=1;jettySize=auto;html=1;entryX=0.5;entryY=0;entryDx=0;entryDy=0;endArrow=open;endFill=0;" edge="1" parent="1" source="bIGdx2mvvDFSyfbHBPX8-29" target="bIGdx2mvvDFSyfbHBPX8-37">
          <mxGeometry relative="1" as="geometry">
            <Array as="points">
              <mxPoint x="414" y="490" />
              <mxPoint x="272" y="490" />
            </Array>
          </mxGeometry>
        </mxCell>
        <mxCell id="bIGdx2mvvDFSyfbHBPX8-29" value="x &amp;gt; y" style="rhombus;whiteSpace=wrap;html=1;" vertex="1" parent="1">
          <mxGeometry x="374" y="360" width="80" height="80" as="geometry" />
        </mxCell>
        <mxCell id="bIGdx2mvvDFSyfbHBPX8-47" style="edgeStyle=orthogonalEdgeStyle;rounded=0;orthogonalLoop=1;jettySize=auto;html=1;entryX=0.5;entryY=0;entryDx=0;entryDy=0;endArrow=open;endFill=0;" edge="1" parent="1" source="bIGdx2mvvDFSyfbHBPX8-33" target="bIGdx2mvvDFSyfbHBPX8-45">
          <mxGeometry relative="1" as="geometry" />
        </mxCell>
        <mxCell id="bIGdx2mvvDFSyfbHBPX8-48" style="edgeStyle=orthogonalEdgeStyle;rounded=0;orthogonalLoop=1;jettySize=auto;html=1;entryX=0.5;entryY=0;entryDx=0;entryDy=0;endArrow=open;endFill=0;" edge="1" parent="1" source="bIGdx2mvvDFSyfbHBPX8-33" target="bIGdx2mvvDFSyfbHBPX8-44">
          <mxGeometry relative="1" as="geometry" />
        </mxCell>
        <mxCell id="bIGdx2mvvDFSyfbHBPX8-33" value="x &amp;lt; y" style="rhombus;whiteSpace=wrap;html=1;" vertex="1" parent="1">
          <mxGeometry x="518" y="505" width="80" height="80" as="geometry" />
        </mxCell>
        <mxCell id="bIGdx2mvvDFSyfbHBPX8-35" value="Нет" style="text;html=1;strokeColor=none;fillColor=none;align=center;verticalAlign=middle;whiteSpace=wrap;rounded=0;" vertex="1" parent="1">
          <mxGeometry x="452" y="470" width="40" height="20" as="geometry" />
        </mxCell>
        <mxCell id="bIGdx2mvvDFSyfbHBPX8-57" style="edgeStyle=orthogonalEdgeStyle;rounded=0;orthogonalLoop=1;jettySize=auto;html=1;endArrow=open;endFill=0;" edge="1" parent="1" source="bIGdx2mvvDFSyfbHBPX8-37">
          <mxGeometry relative="1" as="geometry">
            <mxPoint x="410" y="770" as="targetPoint" />
            <Array as="points">
              <mxPoint x="272" y="770" />
            </Array>
          </mxGeometry>
        </mxCell>
        <mxCell id="bIGdx2mvvDFSyfbHBPX8-37" value="s = pow(fabs(f-y), 1./3 + tan(f)" style="rounded=0;whiteSpace=wrap;html=1;" vertex="1" parent="1">
          <mxGeometry x="202" y="525" width="140" height="40" as="geometry" />
        </mxCell>
        <mxCell id="bIGdx2mvvDFSyfbHBPX8-39" value="Да" style="text;html=1;strokeColor=none;fillColor=none;align=center;verticalAlign=middle;whiteSpace=wrap;rounded=0;" vertex="1" parent="1">
          <mxGeometry x="310" y="470" width="40" height="20" as="geometry" />
        </mxCell>
        <mxCell id="bIGdx2mvvDFSyfbHBPX8-55" style="edgeStyle=orthogonalEdgeStyle;rounded=0;orthogonalLoop=1;jettySize=auto;html=1;exitX=0.5;exitY=1;exitDx=0;exitDy=0;endArrow=open;endFill=0;" edge="1" parent="1" source="bIGdx2mvvDFSyfbHBPX8-44">
          <mxGeometry relative="1" as="geometry">
            <mxPoint x="410" y="760" as="targetPoint" />
            <Array as="points">
              <mxPoint x="668" y="760" />
            </Array>
          </mxGeometry>
        </mxCell>
        <mxCell id="bIGdx2mvvDFSyfbHBPX8-44" value="s = pow((y + f), 2) + pow(x, 3);" style="rounded=0;whiteSpace=wrap;html=1;" vertex="1" parent="1">
          <mxGeometry x="598" y="640" width="140" height="40" as="geometry" />
        </mxCell>
        <mxCell id="bIGdx2mvvDFSyfbHBPX8-56" style="edgeStyle=orthogonalEdgeStyle;rounded=0;orthogonalLoop=1;jettySize=auto;html=1;endArrow=open;endFill=0;" edge="1" parent="1" source="bIGdx2mvvDFSyfbHBPX8-45" target="bIGdx2mvvDFSyfbHBPX8-53">
          <mxGeometry relative="1" as="geometry">
            <Array as="points">
              <mxPoint x="450" y="690" />
              <mxPoint x="410" y="690" />
            </Array>
          </mxGeometry>
        </mxCell>
        <mxCell id="bIGdx2mvvDFSyfbHBPX8-45" value="s = pow((y - f), 3) + cos(f)" style="rounded=0;whiteSpace=wrap;html=1;" vertex="1" parent="1">
          <mxGeometry x="380" y="640" width="140" height="40" as="geometry" />
        </mxCell>
        <mxCell id="bIGdx2mvvDFSyfbHBPX8-49" value="Нет" style="text;html=1;strokeColor=none;fillColor=none;align=center;verticalAlign=middle;whiteSpace=wrap;rounded=0;" vertex="1" parent="1">
          <mxGeometry x="596" y="590" width="40" height="20" as="geometry" />
        </mxCell>
        <mxCell id="bIGdx2mvvDFSyfbHBPX8-50" value="Да" style="text;html=1;strokeColor=none;fillColor=none;align=center;verticalAlign=middle;whiteSpace=wrap;rounded=0;" vertex="1" parent="1">
          <mxGeometry x="490" y="590" width="40" height="20" as="geometry" />
        </mxCell>
        <mxCell id="bIGdx2mvvDFSyfbHBPX8-58" style="edgeStyle=orthogonalEdgeStyle;rounded=0;orthogonalLoop=1;jettySize=auto;html=1;endArrow=open;endFill=0;" edge="1" parent="1" source="bIGdx2mvvDFSyfbHBPX8-53">
          <mxGeometry relative="1" as="geometry">
            <mxPoint x="414" y="900" as="targetPoint" />
          </mxGeometry>
        </mxCell>
        <mxCell id="bIGdx2mvvDFSyfbHBPX8-53" value="s" style="shape=parallelogram;perimeter=parallelogramPerimeter;whiteSpace=wrap;html=1;fixedSize=1;" vertex="1" parent="1">
          <mxGeometry x="354" y="790" width="120" height="60" as="geometry" />
        </mxCell>
        <mxCell id="bIGdx2mvvDFSyfbHBPX8-59" value="Конец" style="strokeWidth=2;html=1;shape=mxgraph.flowchart.terminator;whiteSpace=wrap;" vertex="1" parent="1">
          <mxGeometry x="364" y="900" width="100" height="60" as="geometry" />
        </mxCell>
      </root>
    </mxGraphModel>
  </diagram>
</mxfile>
